<?xml version="1.0" standalone="no"?>
<!DOCTYPE svg PUBLIC "-//W3C//DTD SVG 1.1//EN" "http://www.w3.org/Graphics/SVG/1.1/DTD/svg11.dtd" >
<!--
2013-9-30: Created.
-->
<svg>
<metadata>
Created by iconfont
</metadata>
<defs>

<font id="iconfont" horiz-adv-x="1024" >
  <font-face
    font-family="iconfont"
    font-weight="500"
    font-stretch="normal"
    units-per-em="1024"
    ascent="896"
    descent="-128"
  />
    <missing-glyph />
    
    <glyph glyph-name="xiala" unicode="&#59065;" d="M512.726547 220.681354c-8.063653 0-15.790638 3.245927-21.435195 9.006118L231.175103 495.093191c-11.603269 11.837606-11.410887 30.840402 0.427742 42.442648 11.837606 11.601222 30.841426 11.410887 42.442648-0.427742l238.681054-243.534596L751.407602 537.108097c11.601222 11.839653 30.602995 12.033058 42.442648 0.427742 11.839653-11.603269 12.031011-30.605042 0.427742-42.442648L534.161742 229.687472C528.517185 223.927281 520.791224 220.681354 512.726547 220.681354z"  horiz-adv-x="1024" />

    
    <glyph glyph-name="dagou1" unicode="&#58887;" d="M887.904 597.792c-12.864 12.064-33.152 11.488-45.216-1.408L415.936 142.016l-233.12 229.696c-12.608 12.416-32.864 12.288-45.28-0.32-12.416-12.576-12.256-32.864 0.352-45.248l256.48-252.672c0.096-0.096 0.224-0.128 0.32-0.224s0.128-0.224 0.224-0.32c2.016-1.92 4.448-3.008 6.784-4.288 1.152-0.672 2.144-1.664 3.36-2.144 3.776-1.472 7.776-2.24 11.744-2.24 4.192 0 8.384 0.832 12.288 2.496 1.312 0.544 2.336 1.664 3.552 2.368 2.4 1.408 4.896 2.592 6.944 4.672 0.096 0.096 0.128 0.256 0.224 0.352 0.064 0.096 0.192 0.128 0.288 0.224L889.28 552.576c12.16 12.832 11.488 33.088-1.376 45.216z"  horiz-adv-x="1024" />

    
    <glyph glyph-name="pingguo" unicode="&#59556;" d="M839.595 222.256c28.16-39.834 60.436-65.587 96.839-77.26-15.79-48.763-40.858-99.583-75.202-152.462-52.88-79.667-105.082-119.5-156.589-119.5-19.23 0-47.728 6.523-85.503 19.569-35.02 13.056-65.586 19.578-91.688 19.578-26.091 0-54.937-6.87-86.537-20.602-32.963-13.056-60.088-19.579-81.377-19.579-61.808 0-122.592 52.54-182.342 157.623-59.75 103.7-89.63 205.689-89.63 305.958 0 92.712 22.661 168.6 67.993 227.663 46.705 59.064 104.386 88.596 173.065 88.596 15.114 0 31.938-1.884 50.483-5.663 18.544-3.778 37.775-10.813 57.691-21.114 21.3-11.674 38.81-19.753 52.541-24.208 13.732-4.464 24.381-6.696 31.938-6.696 8.93 0 22.661 2.068 41.206 6.184 18.544 4.127 37.078 11.674 55.623 22.661 19.916 10.988 37.089 19.23 51.507 24.73 14.417 5.488 29.183 8.243 44.297 8.243 48.077 0 91.34-13.046 129.801-39.147 20.603-13.732 41.544-33.997 62.842-60.784-31.6-27.474-54.599-51.507-69.027-72.11-26.787-38.46-40.181-80.352-40.181-125.674 0.01-50.155 14.09-95.487 42.25-136.006z m-207.071 481.09c-24.033-22.66-46.008-37.426-65.925-44.297-6.87-2.069-15.626-3.953-26.275-5.673-10.65-1.71-22.835-3.267-36.567-4.639 0.686 60.436 16.476 112.629 47.39 156.589C582.051 849.286 632.872 879.504 703.61 895.99c1.372-6.871 2.406-11.674 3.092-14.418v-11.336c0-24.719-5.836-52.54-17.51-83.445-12.36-30.217-31.252-58.04-56.667-83.444z m0 0"  horiz-adv-x="1024" />

    
    <glyph glyph-name="NGlianshu" unicode="&#58918;" d="M510.6 833.2c-248 0-448.7-200.7-448.7-448.7s200.7-448.7 448.7-448.7 448.7 200.7 448.7 448.7c0 247.9-200.8 448.7-448.7 448.7zM631 386.8h-77.9v-281H437.4v281h-59v96.8h59v59c0 77.9 33.1 125.1 125.1 125.1h77.9V571h-47.2c-35.4 0-37.8-14.2-37.8-37.8V486h87.4L631 386.8z"  horiz-adv-x="1024" />

    
    <glyph glyph-name="google" unicode="&#58893;" d="M512 819.2c-240.64 0-435.2-195.072-435.2-435.2s195.072-435.2 435.2-435.2c240.64 0 435.2 195.072 435.2 435.2s-194.56 435.2-435.2 435.2z m251.904-435.2c0-138.752-113.152-251.904-251.904-251.904s-251.904 113.152-251.904 251.904 113.152 251.904 251.904 251.904c62.464 0 121.856-23.04 168.448-64.512l-52.224-57.856c-31.744 28.672-73.216 44.544-116.224 44.544-96.256 0-174.08-78.336-174.08-174.08 0-96.256 78.336-174.08 174.08-174.08 82.432 0 152.064 57.856 169.984 135.168h-155.648v77.824h238.08v-38.912z"  horiz-adv-x="1024" />

    
    <glyph glyph-name="twitter-circle-fill" unicode="&#59530;" d="M512 832C264.6 832 64 631.4 64 384s200.6-448 448-448 448 200.6 448 448S759.4 832 512 832z m215.3-337.7c0.3-4.7 0.3-9.6 0.3-14.4 0-146.8-111.8-315.9-316.1-315.9-63 0-121.4 18.3-170.6 49.8 9-1 17.6-1.4 26.8-1.4 52 0 99.8 17.6 137.9 47.4-48.8 1-89.8 33-103.8 77 17.1-2.5 32.5-2.5 50.1 2-50.8 10.3-88.9 55-88.9 109v1.4c14.7-8.3 32-13.4 50.1-14.1-30.9 20.6-49.5 55.3-49.5 92.4 0 20.7 5.4 39.6 15.1 56 54.7-67.4 136.9-111.4 229-116.1C492 542.9 548.4 604 616.2 604c32 0 60.8-13.4 81.1-35 25.1 4.7 49.1 14.1 70.5 26.7-8.3-25.7-25.7-47.4-48.8-61.1 22.4 2.4 44 8.6 64 17.3-15.1-22.2-34-41.9-55.7-57.6z"  horiz-adv-x="1024" />

    
    <glyph glyph-name="guanyu" unicode="&#58953;" d="M512 784.6c220.9 0 400.6-179.7 400.6-400.6S732.9-16.6 512-16.6 111.4 163.1 111.4 384 291.1 784.6 512 784.6m0 47.2C264.7 831.8 64.2 631.3 64.2 384S264.7-63.8 512-63.8 959.8 136.7 959.8 384 759.3 831.8 512 831.8zM513.8 134.6c-25.9 0-47.2 21.2-47.2 47.2 0 25.9 21.2 47.2 47.2 47.2 25.9 0 47.2-21.2 47.2-47.2 0-26-21.2-47.2-47.2-47.2zM513.8 259.1c-25.9 0-47.2 21.2-47.2 47.2v283c0 25.9 21.2 47.2 47.2 47.2 25.9 0 47.2-21.2 47.2-47.2v-283c0-26-21.2-47.2-47.2-47.2z"  horiz-adv-x="1024" />

    
    <glyph glyph-name="chutubaojia" unicode="&#58954;" d="M556.6-17.5H295.8V509.6H868c50.9 0 92.4-41.4 92.4-92.4v-77.1c0-13-10.6-23.6-23.6-23.6s-23.6 10.6-23.6 23.6v77.1c0 24.8-20.2 45.1-45.1 45.1h-525v-432.6h213.5c13 0 23.6-10.6 23.6-23.6s-10.6-23.6-23.6-23.6zM443.7 352.8m-38.7 0a38.7 38.7 0 1 1 77.4 0 38.7 38.7 0 1 1-77.4 0ZM443.7 110.8h133.2s22.9 98.1 83.1 140c75.7 52.7 119.5 47 119.5 47L688 346.3c-20.9 11.1-46.9 5-60.6-14.3L531 196.7l-30.9 18.1c-22.2 13-50.7 5.8-64.2-16.1l-53.8-87.9h61.6zM804.7-63.8c-85.8 0-155.5 69.8-155.5 155.5S719 247.2 804.7 247.2s155.5-69.8 155.5-155.5-69.8-155.5-155.5-155.5z m0 270.1c-63.2 0-114.6-51.4-114.6-114.6s51.4-114.6 114.6-114.6c63.2 0 114.6 51.4 114.6 114.6s-51.5 114.6-114.6 114.6zM842.2 95.3h-69.1c-6.5 0-11.8 5.3-11.8 11.8s5.3 11.8 11.8 11.8h69.1c6.5 0 11.8-5.3 11.8-11.8s-5.3-11.8-11.8-11.8zM807.8 21c-6.5 0-11.8 5.3-11.8 11.8v64.8c0 6.5 5.3 11.8 11.8 11.8s11.8-5.3 11.8-11.8v-64.8c0.1-6.5-5.2-11.8-11.8-11.8zM851.7 58.6h-84.6c-6.5 0-11.8 5.3-11.8 11.8 0 6.5 5.3 11.8 11.8 11.8h84.6c6.5 0 11.8-5.3 11.8-11.8 0-6.5-5.3-11.8-11.8-11.8zM807 108.1c-3.1 0-6.2 1.2-8.5 3.6L772.9 138c-4.6 4.7-4.5 12.2 0.2 16.7 4.7 4.6 12.1 4.5 16.7-0.2l25.6-26.3c4.6-4.7 4.5-12.2-0.2-16.7-2.2-2.3-5.2-3.4-8.2-3.4zM809.4 108.1c-2.8 0-5.7 1-7.9 3-4.9 4.4-5.3 11.9-0.9 16.7l23.4 26c4.4 4.9 11.9 5.2 16.7 0.9 4.9-4.4 5.3-11.9 0.9-16.7l-23.4-26c-2.4-2.6-5.6-3.9-8.8-3.9zM297.8-17.5c-8.8 0-17.2 4.9-21.3 13.4L69.8 426.4c-15.4 35.2-0.9 75.5 32.7 92.4L679.8 824c17.4 8.8 36.6 10.2 54.7 4.2 18-6 32.6-18.7 41.1-35.7L913.3 497c5.5-11.8 0.4-25.9-11.4-31.4-11.9-5.6-25.9-0.4-31.4 11.4L733 772c-2.6 5.1-7.4 9.3-13.4 11.3s-12.4 1.5-18.1-1.3L124.1 476.8c-11.6-5.8-16.4-19.3-11.4-30.8L319 16.3c5.7-11.8 0.7-25.9-11.1-31.5-3.2-1.6-6.7-2.3-10.1-2.3z"  horiz-adv-x="1024" />

    
    <glyph glyph-name="guiti" unicode="&#58955;" d="M836.5 47.1h-649c-34.7 0-62.9 28.2-62.9 62.9V768.9c0 34.7 28.2 62.9 62.9 62.9h649c34.7 0 62.9-28.2 62.9-62.9v-658.8c0-34.7-28.2-63-62.9-63z m-649 737.5c-8.7 0-15.7-7.1-15.7-15.7v-658.8c0-8.5 7.2-15.7 15.7-15.7h649c8.5 0 15.7 7.2 15.7 15.7V768.9c0 8.7-7.1 15.7-15.7 15.7h-649zM512 47.1c-13 0-23.6 10.6-23.6 23.6V798.9c0 13 10.6 23.6 23.6 23.6 13 0 23.6-10.6 23.6-23.6v-728.2c0-13-10.6-23.6-23.6-23.6zM873.1 273.3H155.3c-13 0-23.6 10.6-23.6 23.6 0 13 10.6 23.6 23.6 23.6h717.8c13 0 23.6-10.6 23.6-23.6 0-13.1-10.6-23.6-23.6-23.6zM361.8 165.1h-59c-13 0-23.6 10.6-23.6 23.6s10.6 23.6 23.6 23.6h59c13 0 23.6-10.6 23.6-23.6s-10.6-23.6-23.6-23.6zM430.6 509.3c-13 0-23.6 10.6-23.6 23.6v59c0 13 10.6 23.6 23.6 23.6s23.6-10.6 23.6-23.6v-59c0-13.1-10.5-23.6-23.6-23.6zM597.8 509.3c-13 0-23.6 10.6-23.6 23.6v59c0 13 10.6 23.6 23.6 23.6 13 0 23.6-10.6 23.6-23.6v-59c0-13.1-10.6-23.6-23.6-23.6zM725.6 165.1h-59c-13 0-23.6 10.6-23.6 23.6s10.6 23.6 23.6 23.6h59c13 0 23.6-10.6 23.6-23.6s-10.6-23.6-23.6-23.6zM302.8-63.8c-37.4 0-67.9 32.6-67.9 72.8v61.7c0 13 10.6 23.6 23.6 23.6 13 0 23.6-10.6 23.6-23.6V9c0-13.9 9.5-25.6 20.7-25.6s20.6 11.7 20.6 25.6v61.7c0 13 10.6 23.6 23.6 23.6s23.6-10.6 23.6-23.6V9c0-40.1-30.4-72.8-67.8-72.8zM725.6-63.8c-37.4 0-67.8 32.6-67.8 72.8v61.7c0 13 10.6 23.6 23.6 23.6 13 0 23.6-10.6 23.6-23.6V9c0-13.9 9.4-25.6 20.6-25.6s20.7 11.7 20.7 25.6v61.7c0 13 10.6 23.6 23.6 23.6 13 0 23.6-10.6 23.6-23.6V9c-0.1-40.1-30.5-72.8-67.9-72.8z"  horiz-adv-x="1024" />

    
    <glyph glyph-name="xieyi" unicode="&#58956;" d="M637 375.9H300c-13 0-23.6 10.5-23.6 23.6S287 423 300 423h337c13 0 23.6-10.5 23.6-23.6s-10.5-23.5-23.6-23.5zM479.2 524.9H302.4c-13 0-23.6 10.5-23.6 23.6s10.5 23.6 23.6 23.6h176.8c13 0 23.6-10.5 23.6-23.6s-10.6-23.6-23.6-23.6zM724-63.8H182.3c-39 0-70.7 31.7-70.7 70.7V761.1c0 18.9 7.4 36.7 20.8 50.1 13.3 13.3 31 20.6 49.8 20.6h0.3L842 828.9c38.8-0.1 70.4-31.9 70.4-70.7v-638.8c0-6.4-2.6-12.5-7.2-16.9L740.3-57.1c-4.4-4.3-10.2-6.7-16.3-6.7zM182.3 784.7c-6.3 0-12.1-2.4-16.6-6.9-4.5-4.5-6.9-10.4-6.9-16.7v-754.3c0-13 10.6-23.6 23.6-23.6h532.1l150.8 146.1V758.2c0 12.9-10.5 23.5-23.5 23.6l-659.5 2.9zM724-63.8c-2.5 0-5.1 0.4-7.6 1.2-8.3 2.8-14.4 10.1-15.7 18.8L675 128.7c-3.1 14.6 1.9 31 13.8 42.3 11.8 11.3 28.5 15.7 44.3 11.6l161.4-40.3c8.3-2.1 14.8-8.5 17-16.7 2.2-8.3-0.2-17.1-6.4-23L740.3-57.1c-4.4-4.4-10.3-6.7-16.3-6.7zM721.5 137l19-128.4L842 106.9 721.5 137z"  horiz-adv-x="1024" />

    
    <glyph glyph-name="youxiang" unicode="&#58957;" d="M885.6 29.5H138.8c-41.1 0-74.6 33.5-74.6 74.6V662.2c0 41.1 33.4 74.6 74.6 74.6h746.9c41.1 0 74.6-33.4 74.6-74.6v-558.1c-0.1-41.1-33.6-74.6-74.7-74.6zM138.8 689.6c-15.1 0-27.4-12.3-27.4-27.4v-558.1c0-15.1 12.3-27.4 27.4-27.4h746.9c15.1 0 27.4 12.3 27.4 27.4V662.2c0 15.1-12.3 27.4-27.4 27.4H138.8zM512.1 348.8c-14.3 0-28.5 4.2-40.9 12.5l-384.4 264c-10.7 7.4-13.5 22-6.1 32.8 7.4 10.7 22 13.4 32.8 6.1l384.2-263.9c8.7-5.8 20.3-5.9 29.2 0.1l384 263.8c10.8 7.4 25.4 4.7 32.8-6.1 7.4-10.7 4.7-25.4-6.1-32.8L553.4 361.5c-12.6-8.4-26.9-12.7-41.3-12.7z"  horiz-adv-x="1024" />

    
    <glyph glyph-name="shangchuanmoxing" unicode="&#58958;" d="M87.8 550.9c-13 0-23.6 10.5-23.6 23.6V763.7c0 37.6 30.5 68.1 68.1 68.1h178.1c13 0 23.6-10.5 23.6-23.6s-10.5-23.6-23.6-23.6H132.3c-11.6 0-21-9.4-21-21v-189.2c0-13-10.5-23.5-23.5-23.5zM936 550.6c-13 0-23.6 10.5-23.6 23.6V763.4c0 11.6-9.4 21-21 21h-178c-13 0-23.6 10.5-23.6 23.6s10.5 23.6 23.6 23.6h178.1c37.6 0 68.1-30.5 68.1-68.1v-189.2c0-13.1-10.6-23.7-23.6-23.7zM310.5-63.8H132.4c-37.6 0-68.1 30.5-68.1 68.1V193.5c0 13 10.5 23.6 23.6 23.6s23.6-10.5 23.6-23.6v-189.2c0-11.6 9.4-21 21-21h178.1c13 0 23.6-10.5 23.6-23.6s-10.7-23.5-23.7-23.5zM491.9 50.9L245.1 193.3c-9.3 5.4-15 15.3-15 26V513.9c0 10.6 5.6 20.4 14.7 25.8l246.8 146.5c9.4 5.6 21.2 5.6 30.6 0L769 539.7c9.1-5.4 14.7-15.2 14.7-25.8v-294.6c0-10.7-5.7-20.6-15-26L521.9 50.9c-9.3-5.3-20.7-5.3-30 0zM277.2 229.2l229.7-132.5 229.7 132.5V504.1L506.9 640.4 277.2 504.1v-274.9z m482.9-13.6h0.2-0.2zM506.9 212l-133.1 76.8V446.4l133.1 79 133.1-79v-157.6L506.9 212z m-86 104l86-49.6 86 49.6V419.6l-86 51-86-51V316zM494.908 388.927l253.285 148.868 23.865-40.605-253.285-148.868zM530.4 69.5h-47.1V357.8L241.8 497.1l23.6 40.8 265-152.9zM303.763177 242.027372a9.7 9.7 0 1 1 7.614143 17.843341 9.7 9.7 0 1 1-7.614143-17.843341ZM327.827153 256.874515a9.7 9.7 0 1 1 7.614143 17.843341 9.7 9.7 0 1 1-7.614143-17.843341ZM352.71951 272.346086a9.7 9.7 0 1 1 7.614143 17.843341 9.7 9.7 0 1 1-7.614143-17.843341ZM702.679132 247.089004a9.7 9.7 0 1 1 17.843341 7.614143 9.7 9.7 0 1 1-17.843341-7.614143ZM678.573869 261.988746a9.7 9.7 0 1 1 17.843341 7.614143 9.7 9.7 0 1 1-17.843341-7.614143ZM653.779338 277.395997a9.7 9.7 0 1 1 17.843341 7.614143 9.7 9.7 0 1 1-17.843341-7.614143ZM500.220503 539.707782a9.7 9.7 0 1 1 13.422934 14.0066 9.7 9.7 0 1 1-13.422934-14.0066ZM500.212888 567.715627a9.7 9.7 0 1 1 13.422933 14.006601 9.7 9.7 0 1 1-13.422933-14.006601ZM500.207535 596.620171a9.7 9.7 0 1 1 13.422934 14.0066 9.7 9.7 0 1 1-13.422934-14.0066ZM841.9-63.6c-13 0-23.6 10.5-23.6 23.6V133.8c0 13 10.5 23.6 23.6 23.6s23.6-10.5 23.6-23.6V-40c0-13.1-10.5-23.6-23.6-23.6zM936.2 54.8c-4.7 0-9.5 1.4-13.6 4.3L842.2 116 765 59.4c-10.5-7.7-25.3-5.4-32.9 5-7.7 10.5-5.5 25.2 5 32.9l104.6 76.8 108.1-76.6c10.6-7.5 13.1-22.2 5.6-32.9-4.5-6.3-11.8-9.8-19.2-9.8z"  horiz-adv-x="1024" />

    
    <glyph glyph-name="youjiantou" unicode="&#58959;" d="M279.7 9.7c-16.7-16.7-16.8-43.8-0.2-60.5 16.7-16.7 43.7-16.6 60.5-4.1l404.3 404.3c12.6 15.8 15.8 35 9.5 50.7-1 3.8-7.2 11-12.6 17L342.5 815.7c-16.6 20.8-43.5 20.8-60.2 4.1-16.7-16.7-16.7-43.6-0.1-60.2L656 381.9 279.7 9.7z m0 0"  horiz-adv-x="1024" />

    
    <glyph glyph-name="zhinengcaozuo" unicode="&#58960;" d="M488.6 55.3H135c-39 0-70.7 31.7-70.7 70.7V736.7c0 39 31.7 70.7 70.7 70.7h117.9c13 0 23.6-10.6 23.6-23.6s-10.5-23.6-23.6-23.6H135c-13 0-23.6-10.6-23.6-23.6V126c0-13 10.6-23.6 23.6-23.6h353.7c13 0 23.6-10.6 23.6-23.6-0.1-12.9-10.6-23.5-23.7-23.5zM889.7 55.3H773.9c-13 0-23.6 10.5-23.6 23.6 0 13 10.5 23.6 23.6 23.6h115.5c13 0 23.6 10.6 23.6 23.6V736.7c0 5.8-2.2 11.5-6.1 15.8-8.7 9.7-8 24.6 1.7 33.3 9.7 8.7 24.5 8 33.3-1.7 11.8-13 18.2-29.9 18.2-47.4V126c0-38.8-31.5-70.5-70.2-70.7h-0.2zM924.5 744.7c-6.4 0-12.8 2.6-17.5 7.8-4.4 4.9-10.8 7.8-17.5 7.8H443.8c-13 0-23.6 10.6-23.6 23.6s10.5 23.6 23.6 23.6h445.6c20 0 39.1-8.5 52.5-23.3 8.7-9.7 7.9-24.6-1.7-33.3-4.5-4.2-10.1-6.2-15.7-6.2zM630.1 409c-13 0-23.6 10.6-23.6 23.6V621.2c0 13-10.6 23.6-23.6 23.6h-47.2c-13 0-23.6-10.6-23.6-23.6v-94.3c0-39-31.7-70.7-70.7-70.7h-47.2c-39 0-70.7 31.7-70.7 70.7v257c0 13 10.5 23.6 23.6 23.6s23.6-10.6 23.6-23.6v-257c0-13 10.6-23.6 23.6-23.6h47.2c13 0 23.6 10.6 23.6 23.6v94.3c0 39 31.7 70.7 70.7 70.7H583c39 0 70.7-31.7 70.7-70.7v-188.6c0-13.1-10.6-23.6-23.6-23.6zM630.1-39c-91 0-165 74-165 165V291c0 91 74 165 165 165s165-74 165-165v-165c0-91-74-165-165-165z m0 448c-65 0-117.9-52.9-117.9-117.9v-165c0-65 52.9-117.9 117.9-117.9S748 61 748 126V291c0 65.1-52.9 118-117.9 118zM630.1-39c-91 0-165 74-165 165V291c0 91 74 165 165 165s165-74 165-165v-165c0-91-74-165-165-165z m0 448c-65 0-117.9-52.9-117.9-117.9v-165c0-65 52.9-117.9 117.9-117.9S748 61 748 126V291c0 65.1-52.9 118-117.9 118zM488.6 317.6h282.9v-53H488.6zM603.6 432.5h53V291h-53z"  horiz-adv-x="1024" />

    
    <glyph glyph-name="zuojiantou" unicode="&#58961;" d="M744.2 9.9L368 382.1l373.8 377.7c16.6 16.6 16.5 43.5-0.1 60.2-16.8 16.7-43.7 16.8-60.3-4L282.7 417.3c-5.4-6-11.6-13.1-12.6-17-6.3-15.7-3.2-34.9 9.5-50.7l404.3-404.3c16.7-12.5 43.8-12.5 60.5 4.1 16.6 16.7 16.5 43.8-0.2 60.5z m0 0"  horiz-adv-x="1024" />

    
    <glyph glyph-name="youjiantou-cu" unicode="&#58962;" d="M892.4 313.2H134.6c-39.1 0-70.8 31.7-70.8 70.8 0 39.1 31.7 70.8 70.8 70.8h757.7v-141.6zM582.8 18.4c-15.5 0-30.9 6-42.5 18-22.6 23.4-21.9 60.8 1.5 83.4l274.3 264.4-274.3 264c-23.5 22.6-24.2 59.9-1.6 83.4 22.6 23.5 59.9 24.2 83.4 1.6L942 426.7c11.5-11.1 18.1-26.4 18.1-42.5s-6.5-31.4-18-42.5L623.7 34.9c-11.4-11-26.2-16.5-40.9-16.5z"  horiz-adv-x="1024" />

    
    <glyph glyph-name="quanjing" unicode="&#58963;" d="M794.6 152.3H230.4c-46.1 0-83.5 37.5-83.5 83.5V646.2c0 46.1 37.5 83.5 83.5 83.5h65.7c10.3 0 19.9 5 25.9 13.4l33.3 47.3c14.8 21 38.9 33.5 64.4 33.5h186.5c25.6 0 49.7-12.5 64.4-33.4l33.3-47.3c5.9-8.4 15.6-13.4 25.9-13.4h64.8c46.1 0 83.5-37.5 83.5-83.5v-410.4c0.1-46.2-37.4-83.6-83.5-83.6zM230.4 682.5c-20 0-36.3-16.3-36.3-36.3v-410.4c0-20 16.3-36.4 36.3-36.4h564.3c20 0 36.3 16.3 36.3 36.4V646.2c0 20-16.3 36.3-36.3 36.3h-64.8c-25.6 0-49.7 12.5-64.4 33.5l-33.3 47.3c-5.9 8.4-15.6 13.4-25.9 13.4H419.7c-10.3 0-19.9-5-25.9-13.4L360.6 716c-14.7-21-38.8-33.5-64.4-33.5h-65.8zM512-55.8c-222.6 0-448 54.1-448 157.6 0 23.2 11.6 44.8 34.4 64.3 9.9 8.5 24.8 7.3 33.3-2.6 8.5-9.9 7.3-24.8-2.6-33.3-8.2-7-17.9-17.6-17.9-28.5 0-46.1 152.5-110.4 400.8-110.4s400.8 64.3 400.8 110.4c0 6.3-3.2 13.2-9.6 20.4-8.6 9.8-7.7 24.7 2.1 33.3 9.8 8.7 24.7 7.7 33.3-2.1 14.2-16.1 21.4-33.5 21.4-51.6 0-103.4-225.4-157.5-448-157.5zM276.5 562.3h132.2V538l-69.8-172.8h-31.8L378.3 535H276.5v27.3zM557.8 549.9c12-11 17.9-25.2 17.9-42.5 0-16.8-6.4-32.3-19.3-46.7-7.7-7.9-21.3-18.5-40.9-31.7-21.2-14-33.9-26.4-38.1-37.3H576v-26.5H440.2c0 19.7 6.5 36.9 19.6 51.6 6.8 8.1 21.6 20.1 44.5 35.9 13.4 9.6 22.8 17.1 28.2 22.6 9 10.1 13.5 20.9 13.5 32.3 0 11-3 19.3-9.1 24.8s-15 8.3-26.8 8.3c-12.5 0-21.9-4.2-28.2-12.7-6.4-8.1-9.9-20.1-10.5-36.2h-30.1c0.4 22.1 6.7 39.8 19.1 53 12.5 14.2 29.4 21.3 50.8 21.3 19 0.1 34.6-5.3 46.6-16.2zM727.6 536.9c11.6-18.2 17.4-42.6 17.4-73.2s-5.8-54.9-17.4-73.2c-12.9-19.5-30.8-29.3-53.8-29.3-23 0-40.9 9.8-53.8 29.3-11.6 18.2-17.4 42.6-17.4 73.2 0 30.9 5.8 55.3 17.4 73.2 12.7 19.5 30.6 29.3 53.8 29.3s41-9.7 53.8-29.3zM639.5 514c-4.8-11.8-7.2-28.5-7.2-50.2 0-21.5 2.4-38.3 7.2-50.2 6.6-17.9 18-26.8 34.2-26.8s27.6 8.9 34.2 26.8c4.8 12.7 7.2 29.4 7.2 50.2 0 21.2-2.4 37.9-7.2 50.2-6.6 17.9-18 26.8-34.2 26.8s-27.6-8.9-34.2-26.8z"  horiz-adv-x="1024" />

    
    <glyph glyph-name="huxing" unicode="&#58964;" d="M860.9-63.6H163c-54.6 0-99 44.2-99 98.6V733.5c0 54.4 44.4 98.6 99 98.6h451.8c13 0 23.6-10.5 23.6-23.6s-10.6-23.6-23.6-23.6H163c-28.6 0-51.8-23.1-51.8-51.4V35c0-28.4 23.3-51.4 51.8-51.4h698c28.6 0 51.8 23.1 51.8 51.4V733.5c0 28.4-23.3 51.4-51.8 51.4h-90.4c-13 0-23.6 10.5-23.6 23.6s10.6 23.6 23.6 23.6H861c54.6 0 99-44.2 99-98.6V35c-0.1-54.3-44.5-98.6-99.1-98.6zM506.5 361.1H232.7c-13 0-23.6 10.5-23.6 23.6s10.6 23.6 23.6 23.6h273.8c13 0 23.6-10.5 23.6-23.6s-10.6-23.6-23.6-23.6zM511.5 187.8c-13 0-23.6 10.5-23.6 23.6V557.7c0 13 10.6 23.6 23.6 23.6 13 0 23.6-10.5 23.6-23.6v-346.3c0-13-10.5-23.6-23.6-23.6zM511.8-46.7c-13 0-23.6 10.5-23.6 23.6V79.5c0 13 10.6 23.6 23.6 23.6 13 0 23.6-10.5 23.6-23.6v-102.6c0-13-10.6-23.6-23.6-23.6zM511.8 670.9c-13 0-23.6 10.5-23.6 23.6v105c0 13 10.6 23.6 23.6 23.6 13 0 23.6-10.5 23.6-23.6v-105c0-13-10.6-23.6-23.6-23.6zM923.7 452.9H754.8c-13 0-23.6 10.5-23.6 23.6 0 13 10.6 23.6 23.6 23.6h168.9c13 0 23.6-10.5 23.6-23.6 0-13-10.6-23.6-23.6-23.6z"  horiz-adv-x="1024" />

    
    <glyph glyph-name="chutuyouxiang" unicode="&#58965;" d="M893.6-43H130.4c-36.7 0-66.5 29.9-66.5 66.6V387.8c0 22.5 10.9 43.9 29.1 57.2l2.6 1.6 122 66.7c11.4 6.3 25.8 2.1 32-9.4 6.3-11.4 2.1-25.8-9.4-32l-120.4-65.8c-5.5-4.5-8.7-11.2-8.7-18.3v-364.2c0-10.7 8.7-19.4 19.4-19.4h763.2c10.7 0 19.4 8.7 19.4 19.4V387.8c0 7.1-3.2 13.8-8.7 18.3L784 471.9c-11.4 6.2-15.6 20.6-9.4 32 6.2 11.4 20.6 15.7 32 9.4L931.1 445c18.2-13.3 29.1-34.7 29.1-57.2v-364.2c-0.1-36.7-29.9-66.6-66.6-66.6zM795.2 363.2c-13 0-23.6 10.6-23.6 23.6v356c0 11.4-11.3 21-24.6 21H277c-13.3 0-24.6-9.6-24.6-21v-356c0-13-10.6-23.6-23.6-23.6s-23.6 10.6-23.6 23.6v356c0 37.6 32.2 68.2 71.8 68.2h470c39.6 0 71.8-30.6 71.8-68.2v-356c0-13.1-10.6-23.6-23.6-23.6zM512.1 236c-2.9 0-5.7 0.5-8.4 1.6L92 397c-12 4.7-18 18.2-13.4 30.2 4.7 12 18.1 18 30.2 13.4l403.3-156.2 403.1 156.2c12.1 4.7 25.5-1.3 30.2-13.4 4.7-12.1-1.3-25.5-13.4-30.2L520.5 237.6c-2.7-1.1-5.5-1.6-8.4-1.6zM500.3 426.1c-5.1 0-10.1 1.6-14.4 4.9l-72.1 55.8-34.8-43.1c-8.2-10.1-23-11.7-33.2-3.6-10.1 8.2-11.8 23-3.6 33.2l49.3 61.2c8.1 10 22.6 11.7 32.8 3.9l72.5-56.1 102.3 122c4.6 5.5 11.5 8.4 18.5 8.4 7.1-0.1 13.8-3.5 18.2-9.2l81.7-105.8c8-10.3 6.1-25.1-4.3-33.1-10.3-8-25.1-6.1-33.1 4.2l-63.8 82.6-98-116.9c-4.6-5.5-11.2-8.4-18-8.4zM360.6 657.1m-37.4 0a37.4 37.4 0 1 1 74.8 0 37.4 37.4 0 1 1-74.8 0Z"  horiz-adv-x="1024" />

    
    <glyph glyph-name="zhanshichanpin" unicode="&#58966;" d="M512 191.4c-8.7 0-17.5 2.2-25.3 6.7l-128.2 74c-15.6 9-25.3 25.8-25.3 43.8V470.1c0 17.8 9.5 34.5 24.8 43.5l128.2 76.1c15.9 9.4 35.7 9.4 51.7 0l128.3-76.1c15.3-9 24.8-25.7 24.8-43.5V316c0-18-9.7-34.8-25.3-43.8l-128.2-74c-8-4.6-16.7-6.8-25.5-6.8z m0 358.3c-0.6 0-1.2-0.2-1.8-0.5L382 473.1c-1-0.6-1.7-1.7-1.7-3V316c0-1.2 0.7-2.4 1.7-3l128.2-74c1.1-0.6 2.4-0.6 3.5 0L642 313c1.1 0.6 1.7 1.8 1.7 3V470.1c0 1.2-0.6 2.3-1.7 3l-128.3 76.1c-0.5 0.3-1.1 0.5-1.7 0.5zM500.077 414.516l155.264 91.257 23.916-40.692-155.264-91.256zM535.6 210.8h-47.2V380.3c0 1.2-0.7 2.4-1.7 3L345 465.1l23.6 40.8 141.8-81.8c15.6-9 25.3-25.8 25.3-43.8v-169.5zM588.7 784.9H435.3c-13 0-23.6 10.5-23.6 23.6s10.6 23.6 23.6 23.6h153.4c13 0 23.6-10.5 23.6-23.6s-10.6-23.6-23.6-23.6zM881.3 57.5H142.7c-43.4 0-78.7 35.3-78.7 78.7V658.5c0 43.4 35.3 78.7 78.7 78.7h738.7c43.4 0 78.7-35.3 78.7-78.7v-522.3c-0.1-43.4-35.4-78.7-78.8-78.7zM142.7 690c-17.4 0-31.5-14.1-31.5-31.5v-522.3c0-17.4 14.1-31.5 31.5-31.5h738.7c17.4 0 31.5 14.1 31.5 31.5V658.5c0 17.4-14.1 31.5-31.5 31.5H142.7zM229.3-63.5c-2.4 0-4.8 0.3-7.2 1.1-12.4 4-19.3 17.2-15.3 29.6l38.5 121c4 12.4 17.3 19.3 29.6 15.3 12.4-4 19.3-17.2 15.3-29.6l-38.5-121c-3.1-10-12.4-16.4-22.4-16.4zM795.2-63.5c-10 0-19.3 6.4-22.5 16.4l-38.5 121c-3.9 12.4 2.9 25.7 15.3 29.6 12.4 4 25.7-2.9 29.6-15.3l38.5-121c3.9-12.4-2.9-25.7-15.3-29.6-2.3-0.8-4.8-1.1-7.1-1.1z"  horiz-adv-x="1024" />

    
    <glyph glyph-name="dagou" unicode="&#58967;" d="M511.8 832C264.5 832 64 631.6 64 384.2s200.5-447.8 447.8-447.8 447.8 200.5 447.8 447.8S759.1 832 511.8 832z m297.8-354.9L468.2 168.5c-8.8-7.9-19.8-11.8-30.7-11.8-12.5 0-25 5.1-34 15.1L210.8 385c-17 18.8-15.5 47.7 3.3 64.7s47.7 15.5 64.7-3.3l162.1-179.3L748.2 545c18.8 17 47.7 15.5 64.7-3.3s15.5-47.7-3.3-64.6z"  horiz-adv-x="1024" />

    
    <glyph glyph-name="bianji" unicode="&#58968;" d="M902.2-63.8H121.6c-25.4 0-45.9 20.6-45.9 45.9V694c0 25.4 20.6 45.9 45.9 45.9h453c12.7 0 23-10.3 23-23s-10.3-23-23-23H144.5c-12.7 0-23-10.3-23-23V5c0-12.7 10.3-23 23-23h734.8c12.7 0 23 10.3 23 23V485c0 12.7 10.3 23 23 23s23-10.3 23-23v-502.8c-0.1-25.4-20.7-46-46.1-46zM831.6 795.5h0.1-0.1m-13.2-18.7l75-53-336.5-476-79.7-30.2 4.2 82.7 337 476.5m-336.6-470h0.1-0.1m331.1 525c-7.2 0-14.3-3.4-18.8-9.7l-354-500.8c-2.5-3.5-4-7.7-4.2-12.1l-6.4-124.4c-0.7-13.6 10.3-24.2 22.9-24.2 2.7 0 5.4 0.5 8.2 1.5l119.1 45.2c4.3 1.6 8 4.5 10.6 8.2L944.1 716c7.3 10.4 4.9 24.7-5.5 32L826.1 827.5c-4 2.9-8.6 4.3-13.2 4.3zM841.5 625c-4.6 0-9.2 1.4-13.2 4.2l-92.6 65.5c-10.4 7.3-12.8 21.6-5.5 32 7.3 10.3 21.6 12.8 32 5.5l92.6-65.5c10.4-7.3 12.8-21.6 5.5-32-4.5-6.3-11.6-9.7-18.8-9.7zM557.4 223.1c-4.6 0-9.2 1.4-13.2 4.2L461 286.1c-10.4 7.3-12.8 21.6-5.5 32 7.3 10.3 21.6 12.8 32 5.5l83.2-58.8c10.4-7.3 12.8-21.6 5.5-32-4.5-6.4-11.6-9.7-18.8-9.7z"  horiz-adv-x="1024" />

    
    <glyph glyph-name="shanchu" unicode="&#58969;" d="M937.8 655.3H86.2c-13 0-23.6 10.6-23.6 23.6s10.6 23.6 23.6 23.6h851.7c13 0 23.6-10.6 23.6-23.6s-10.6-23.6-23.7-23.6zM814.3-63.8H200.9c-39 0-70.8 31.7-70.8 70.8V677c0 13 10.6 23.6 23.6 23.6h707.7c13 0 23.6-10.6 23.6-23.6v-670c0.1-39-31.7-70.8-70.7-70.8z m-637 717.2V7c0-13 10.6-23.6 23.6-23.6h613.4c13 0 23.6 10.6 23.6 23.6V653.4H177.3zM699.3 651.8H315.9c-26 0-47.2 21.2-47.2 47.2V808.2c0 13 10.6 23.6 23.6 23.6h430.5c13 0 23.6-10.6 23.6-23.6V699c0.1-26.1-21.1-47.2-47.1-47.2zM315.9 784.6v-85.7h383.4v85.7H315.9zM301.5 56.7c-13 0-23.6 10.6-23.6 23.6v460c0 13 10.6 23.6 23.6 23.6s23.6-10.6 23.6-23.6v-460c0-13.1-10.5-23.6-23.6-23.6zM507.6 56.7c-13 0-23.6 10.6-23.6 23.6v460c0 13 10.6 23.6 23.6 23.6s23.6-10.6 23.6-23.6v-460c0-13.1-10.5-23.6-23.6-23.6zM713.7 56.7c-13 0-23.6 10.6-23.6 23.6v460c0 13 10.6 23.6 23.6 23.6 13 0 23.6-10.6 23.6-23.6v-460c0-13.1-10.6-23.6-23.6-23.6z"  horiz-adv-x="1024" />

    
    <glyph glyph-name="guan" unicode="&#58970;" d="M936.4-64c-6 0-12.1 2.3-16.7 6.9L70.9 791.7c-9.2 9.2-9.2 24.1 0 33.3s24.1 9.2 33.3 0L953-23.8c9.2-9.2 9.2-24.1 0-33.3-4.5-4.6-10.6-6.9-16.6-6.9zM87.6-64c-6 0-12.1 2.3-16.7 6.9-9.2 9.2-9.2 24.1 0 33.3L919.7 825.1c9.2 9.2 24.1 9.2 33.3 0 9.2-9.2 9.2-24.1 0-33.3L104.3-57.1c-4.6-4.6-10.7-6.9-16.7-6.9z"  horiz-adv-x="1024" />

    
    <glyph glyph-name="xialacaidan" unicode="&#58971;" d="M936.4 643.4H87.6c-13 0-23.6 10.5-23.6 23.6 0 13 10.6 23.6 23.6 23.6h848.8c13 0 23.6-10.5 23.6-23.6 0-13.1-10.6-23.6-23.6-23.6zM936.4 360.4H87.6C74.6 360.4 64 371 64 384s10.6 23.6 23.6 23.6h848.8c13 0 23.6-10.5 23.6-23.6s-10.6-23.6-23.6-23.6zM936.4 77.5H87.6c-13 0-23.6 10.5-23.6 23.6 0 13 10.6 23.6 23.6 23.6h848.8c13 0 23.6-10.5 23.6-23.6 0-13.1-10.6-23.6-23.6-23.6z"  horiz-adv-x="1024" />

    
    <glyph glyph-name="bofang" unicode="&#58972;" d="M511.8 784.9c220.9 0 400.7-179.7 400.7-400.7S732.7-16.4 511.8-16.4c-220.9 0-400.7 179.7-400.7 400.7s179.7 400.6 400.7 400.6m0 47.1C264.5 832 64 631.5 64 384.2s200.5-447.8 447.8-447.8 447.8 200.5 447.8 447.8S759.1 832 511.8 832zM387.5 584.2v-427.5c0-19.7 22.8-30.7 38.2-18.4L694.3 352c11.9 9.4 11.9 27.4 0 36.9L425.7 602.7c-15.4 12.3-38.2 1.3-38.2-18.5z"  horiz-adv-x="1024" />

    
    <glyph glyph-name="yanjing" unicode="&#58973;" d="M496.4 107.5c-300 0-426.4 265.3-427.7 268L64 385.6l5.2 9.9c5.6 10.7 141.1 262.2 429.8 262.2 326 0 451.8-252.1 457-262.9l4.1-8.5-3.1-8.9c-0.9-2.6-99-269.9-460.6-269.9zM115.3 384.3C140.4 337.5 255.1 153 496.4 153c293.3 0 394.7 187.7 414.1 230.9-24.4 43.4-143.9 228.4-411.5 228.4-229.8 0-356.2-183.1-383.7-228zM512.1 213.8c-93.1 0-168.9 75.8-168.9 168.9 0 93.1 75.8 168.9 168.9 168.9 93.1 0 168.9-75.8 168.9-168.9 0-93.2-75.8-168.9-168.9-168.9z m0 292.2c-68 0-123.4-55.3-123.4-123.4S444 259.2 512.1 259.2s123.4 55.4 123.4 123.4S580.1 506 512.1 506z"  horiz-adv-x="1024" />

    
    <glyph glyph-name="yanjing-bi" unicode="&#58974;" d="M495.9 304.3c-301 0-427.8 266.1-429.1 268.8-5.5 11.8-0.3 25.8 11.5 31.3s25.8 0.4 31.3-11.4c4.6-9.9 116-241.5 386.3-241.5 329.6 0 416.7 237 417.6 239.4 4.3 12.3 17.8 18.8 30.1 14.4 12.3-4.3 18.8-17.8 14.4-30.1-1-2.7-99.4-270.9-462.1-270.9zM110.1 268.3c-3.5 0-7 0.8-10.3 2.4-11.7 5.7-16.6 19.8-10.9 31.5L159.5 448c5.7 11.7 19.8 16.6 31.5 10.9 11.7-5.7 16.6-19.8 10.9-31.5l-70.6-145.8c-4.1-8.4-12.5-13.3-21.2-13.3zM916.5 254.3c-8.4 0-16.5 4.5-20.8 12.4l-75.3 138.9c-6.2 11.5-1.9 25.8 9.5 32 11.5 6.2 25.8 1.9 32-9.5l75.3-138.9c6.2-11.5 1.9-25.8-9.5-32-3.5-2-7.4-2.9-11.2-2.9zM335.1 164.5c-1.8 0-3.6 0.2-5.5 0.6-12.7 3-20.5 15.7-17.5 28.4l34.4 145.3c3 12.7 15.7 20.5 28.4 17.5s20.5-15.7 17.5-28.4L358 182.6c-2.5-10.8-12.2-18.1-22.9-18.1zM664.2 161.3c-10.7 0-20.3 7.3-22.9 18.1l-37.6 156.2c-3.1 12.7 4.7 25.4 17.4 28.5 12.7 3 25.4-4.7 28.5-17.4l37.6-156.2c3.1-12.7-4.7-25.4-17.4-28.5-1.9-0.5-3.8-0.7-5.6-0.7z"  horiz-adv-x="1024" />

    


  </font>
</defs>
</svg>
